<svg xmlns="http://www.w3.org/2000/svg" width="107" height="32" viewBox="0 0 107 32">
    <g fill="none" fill-rule="evenodd">
        <g fill="#FFF" fill-rule="nonzero">
            <path d="M110.457 38.667c1.667 0 2.994.567 4.014 1.513 1.43 1.324 2.076 3.404 2.076 5.8 0 2.49-.817 4.602-2.245 5.926-1.09 1.008-2.484 1.607-4.015 1.607-2.347 0-4.014-1.103-4.933-2.585v6.739h3.13V60h-9.492v-2.333h2.416V41.251h-2.416V38.92h6.192v3.404c1.089-2.458 2.96-3.656 5.273-3.656zm-53.987 0c3.96 0 6.44 2.398 6.44 4.472 0 1.589-.862 2.723-2.445 2.723-1.481 0-2.341-.973-2.341-2.14 0-.94.757-1.717 1.41-1.976-.482-.681-1.445-1.2-2.96-1.2-2.342 0-4.235 2.043-4.235 5.77 0 3.468 1.549 5.574 4.544 5.574 1.894 0 3.34-1.037 4.063-3.014h2.1c-.756 3.306-3.236 5.38-6.989 5.38-5.096 0-8.057-3.176-8.057-7.584 0-4.7 3.547-8.005 8.47-8.005zm70.564 0c4.978 0 7.229 3.792 7.059 8.135h-10.81c.136 3.662 1.74 5.153 4.57 5.153 1.875 0 3.239-.778 4.091-2.69h2.046c-.784 3.177-3.137 4.991-7.024 4.991-4.978 0-7.911-3.24-7.911-7.649 0-4.537 3.376-7.94 7.979-7.94zm-55.21 0c4.818 0 7.942 3.111 7.942 7.714 0 4.602-3.29 7.875-7.942 7.875-4.851 0-7.941-3.143-7.941-7.746 0-4.602 3.29-7.843 7.94-7.843zm18.39 0c4.819 0 7.942 3.111 7.942 7.714 0 4.602-3.29 7.875-7.942 7.875-4.85 0-7.94-3.143-7.94-7.746 0-4.602 3.289-7.843 7.94-7.843zm55.28 0c1.77 0 2.819 1.293 2.819 2.786 0 1.36-.951 2.455-2.23 2.455-1.278 0-2.261-.764-2.261-2.123 0-.133.032-.299.065-.432-1.213 0-2.262 1.393-2.82 3.317v7.132h2.853v2.454h-8.982v-2.454h2.294V41.353h-2.294V38.9h5.966v3.748c.82-2.687 2.72-3.98 4.59-3.98zM71.69 40.61c-2.426 0-3.555 1.75-3.555 5.834 0 4.085 1.362 5.867 3.82 5.867 2.36 0 3.556-1.782 3.556-5.867 0-4.116-1.395-5.834-3.82-5.834zm18.39 0c-2.425 0-3.554 1.75-3.554 5.834 0 4.085 1.362 5.867 3.82 5.867 2.36 0 3.556-1.782 3.556-5.867 0-4.116-1.396-5.834-3.821-5.834zm18.845.42c-1.973 0-3.742 2.238-3.742 5.295 0 2.774 1.225 4.949 3.742 4.949 2.177 0 3.334-1.86 3.334-5.327 0-3.31-1.327-4.917-3.334-4.917zm17.903-.452c-1.944 0-3.239 1.2-3.512 4.505h6.82c-.204-2.917-1.159-4.505-3.308-4.505zm26.08-1.912c.192 0 .378.024.556.073.178.048.345.117.5.207.154.09.295.197.423.322.128.124.237.262.327.415.09.152.161.316.21.491.05.175.075.357.075.546 0 .187-.025.368-.074.543-.05.175-.12.338-.21.49-.091.15-.2.289-.328.413-.128.125-.27.232-.424.322-.154.09-.32.159-.499.207-.178.049-.364.073-.556.073-.193 0-.378-.024-.555-.073-.178-.048-.344-.118-.498-.207-.155-.09-.296-.197-.423-.322-.128-.124-.237-.262-.328-.414-.09-.151-.16-.314-.21-.488-.05-.174-.075-.355-.075-.544 0-.19.025-.371.075-.546.05-.175.12-.339.21-.491.09-.153.2-.291.328-.415.127-.125.268-.232.423-.322.154-.09.32-.159.498-.207.177-.049.362-.073.555-.073zm0 .244c-.252 0-.488.047-.707.142-.22.094-.41.223-.572.387-.162.163-.29.355-.383.575-.094.22-.14.455-.14.706 0 .166.02.326.062.48.042.153.102.297.18.43.079.134.172.255.28.364.11.108.23.201.364.279.134.078.278.137.432.18.155.042.316.063.484.063.251 0 .487-.047.708-.14.22-.094.412-.222.575-.384.163-.161.292-.351.386-.57.094-.217.142-.452.142-.702 0-.167-.022-.328-.065-.483-.043-.155-.103-.3-.181-.433-.079-.134-.173-.256-.282-.367-.11-.11-.231-.204-.365-.282-.133-.077-.278-.138-.433-.18-.156-.044-.317-.065-.485-.065zm-.035.553c.328 0 .572.058.73.175.158.117.237.29.237.518 0 .176-.05.325-.153.449-.102.123-.254.208-.456.255.032.019.06.042.084.07.024.028.047.061.068.098l.652.938h-.424c-.062 0-.11-.024-.14-.07l-.575-.848c-.017-.024-.037-.043-.061-.056-.024-.013-.06-.02-.11-.02h-.23v.994h-.446v-2.503h.824zm0 .336h-.377v.853h.332c.105 0 .194-.01.267-.03.074-.019.133-.047.177-.085.045-.037.078-.083.098-.137.02-.054.03-.117.03-.188 0-.07-.01-.13-.027-.183-.019-.052-.048-.095-.09-.129-.04-.033-.094-.059-.16-.075-.067-.017-.15-.026-.25-.026zm-70.096-6.056c.662 0 1.167.428 1.167 1.127 0 .635-.522 1.334-1.341 1.334-.662 0-1.166-.429-1.166-1.127 0-.635.522-1.334 1.34-1.334zM81.898 28c.697 0 1.211.505 1.211 1.324 0 .871-.53 1.568-1.194 1.568-.581 0-1.03-.4-.996-1.132-.481.209-1.676 1.69-2.87 6.445h-1.992l1.427-5.644c.25-.993.2-1.271-.1-1.271-.3 0-.632.466-.996 1.194l-.802-.337c.651-1.358 1.408-2.13 2.38-2.13.713 0 1.21.54 1.21 1.62 0 .506-.098 1.116-.33 1.882l.132.052c.962-2.3 1.758-3.571 2.92-3.571zM72.4 28c.945 0 1.546.75 1.546 1.774 0 1.45-1.271 3.633-1.271 4.674 0 .256.103.376.292.376.305 0 .61-.39.976-1.22l.807.32c-.666 1.642-1.535 2.281-2.419 2.281-.927 0-1.528-.597-1.528-1.586 0-1.706 1.134-3.395 1.134-4.555 0-.392-.172-.563-.464-.563-.756 0-2.25 1.296-3.623 6.533h-2.026l1.202-4.503c.154-.563.24-.972.24-1.296 0-.41-.137-.734-.515-.734-.79 0-2.267 1.296-3.64 6.533H61.05l1.477-5.526c.257-.973.206-1.246-.103-1.246-.319 0-.67.477-1.056 1.216l-.829-.33c.68-1.357 1.469-2.13 2.486-2.13.738 0 1.253.528 1.253 1.586 0 .494-.103 1.108-.36 1.893l.12.051C65.17 29.143 66.442 28 67.609 28c.945 0 1.443.631 1.443 1.655 0 .477-.138 1.057-.395 1.842l.12.051C69.911 29.143 71.181 28 72.4 28z" transform="translate(-48 -28)"/>
        </g>
    </g>
</svg>
